<!--?xml version="1.0" encoding="utf-8"?-->
<!-- Generator: Adobe Illustrator 18.1.1, SVG Export Plug-In . SVG Version: 6.00 Build 0)  -->

<svg version="1.1" id="_x32_" xmlns="http://www.w3.org/2000/svg" xmlns:xlink="http://www.w3.org/1999/xlink" x="0px" y="0px" viewBox="0 0 512 512" style="width: 256px; height: 256px; opacity: 1;" xml:space="preserve">
<style type="text/css">
	.st0{fill:#4B4B4B;}
</style>
<g>
	<path class="st0" d="M144.395,294.64c-4.566-2.69-9.773-4.113-15.046-4.113c-10.48,0-20.311,5.619-25.634,14.659
		c-2.69,4.557-4.105,9.765-4.096,15.038c-0.008,10.497,5.61,20.311,14.652,25.626c4.557,2.69,9.756,4.112,15.038,4.112h0.025
		c10.48,0,20.294-5.618,25.6-14.659c2.69-4.566,4.113-9.765,4.113-15.046C159.055,309.769,153.437,299.954,144.395,294.64z
		 M145.325,329.652c-3.364,5.734-9.354,9.156-16.017,9.164c-3.34-0.008-6.499-0.872-9.386-2.558
		c-5.734-3.381-9.157-9.37-9.157-16.033c0-3.324,0.864-6.491,2.567-9.395c3.316-5.643,9.452-9.148,16.017-9.148
		c3.299,0,6.548,0.889,9.387,2.567c5.652,3.307,9.156,9.444,9.156,16.009C147.892,323.605,147.028,326.772,145.325,329.652z" style="fill: rgb(75, 75, 75);"></path>
	<path class="st0" d="M283.728,42.976c-6.508,0-12.734,2.434-17.547,6.86c-5.331,4.903-8.383,11.862-8.375,19.102
		c-0.008,6.515,2.427,12.759,6.853,17.58c4.903,5.314,11.854,8.366,19.102,8.366h0.033c6.515,0,12.743-2.435,17.547-6.853
		c5.322-4.903,8.374-11.871,8.374-19.11c0-6.532-2.443-12.776-6.861-17.563C297.952,46.035,291.008,42.976,283.728,42.976z
		 M293.789,79.822c-2.723,2.517-6.294,3.908-10.028,3.916c-4.188-0.008-8.054-1.702-10.892-4.763
		c-2.526-2.756-3.916-6.318-3.916-10.036c0.008-4.196,1.703-8.07,4.788-10.9c2.731-2.517,6.293-3.899,10.02-3.899
		c4.188,0,8.053,1.694,10.892,4.763c2.517,2.748,3.907,6.31,3.907,10.02C298.551,73.117,296.857,76.991,293.789,79.822z" style="fill: rgb(75, 75, 75);"></path>
	<path class="st0" d="M444.687,219.507c-5.24,0-10.25,1.958-14.116,5.503c-4.27,3.941-6.721,9.527-6.721,15.334
		c0,5.241,1.949,10.25,5.503,14.117c3.941,4.27,9.526,6.722,15.342,6.722h0.033c5.215,0,10.209-1.958,14.076-5.503
		c4.278-3.941,6.729-9.527,6.721-15.335c0-5.231-1.958-10.242-5.504-14.116C456.081,221.958,450.495,219.507,444.687,219.507z
		 M451.26,247.477c-1.802,1.645-4.138,2.551-6.556,2.551c-2.765-0.008-5.298-1.111-7.141-3.126c-1.67-1.802-2.55-4.072-2.558-6.549
		c0.008-2.747,1.11-5.281,3.109-7.14c1.802-1.645,4.138-2.551,6.573-2.551c2.731,0,5.265,1.111,7.124,3.126
		c1.678,1.818,2.558,4.089,2.558,6.556C454.369,243.076,453.259,245.618,451.26,247.477z" style="fill: rgb(75, 75, 75);"></path>
	<path class="st0" d="M481.312,197.756L334.485,22.228C321.504,8.136,303.093,0.033,283.538,0
		c-17.259,0.05-33.761,6.515-46.471,18.205c-5.997,5.529-10.933,12.035-14.585,19.185L61.934,280.614
		c-3.571,6.079-6.31,12.727-8.144,19.76l-0.889-0.14L36.538,405.187c-15.557,1.966-27.551,15.441-27.551,31.236V512h241.917v-75.577
		c-0.008-15.926-11.624-29.106-27.238-31.203l-9.329-79.468l78.76-152.618l92.458,88.492v61.97H416.8v36.114l28.685,32.28
		l28.694-32.28v-36.114h28.833v-80.356C503.013,225.414,495.017,208.747,481.312,197.756z M60.609,348.392
		c6.129,15.013,16.98,27.6,31.063,35.9c11.419,6.705,24.417,10.25,37.62,10.25c26.234,0,50.782-14.043,64.174-36.822l7.733-14.972
		l7.749,66.042H51.181L60.609,348.392z M219.397,419.954c4.384,0,8.531,1.712,11.648,4.812c3.109,3.135,4.82,7.281,4.82,11.657
		v60.531H24.026v-60.531c0-4.393,1.711-8.531,4.829-11.649c3.118-3.109,7.256-4.821,11.648-4.821H219.397z M183.727,352.308
		c-11.312,19.168-32.174,31.079-54.46,31.079c-11.196,0-22.244-3.01-31.935-8.72c-19.209-11.296-31.145-32.174-31.153-54.492
		c0-11.172,3.002-22.187,8.645-31.795L218.731,70.386c0.345,15.835,6.416,30.915,17.324,42.769l47.574,45.534L183.727,352.308z
		 M389.438,244.532l-145.387-139.15c-9.147-9.979-14.182-22.919-14.182-36.435c0-15.252,6.178-29.336,17.391-39.668
		c9.971-9.189,22.928-14.24,36.484-14.24c15.03,0,29.484,6.334,39.602,17.308l131.55,157.102c-3.496-0.692-7.05-1.045-10.613-1.045
		c-30.232,0-54.837,24.598-54.846,54.838V244.532z M459.133,354.002l-13.648,15.36l-13.648-15.36V321.08h27.295V354.002z
		 M487.975,308.55h-87.382v-65.31c0.008-11.666,4.55-22.639,12.793-30.899c8.267-8.251,19.242-12.792,30.898-12.792
		c11.666,0,22.64,4.54,30.899,12.792c8.251,8.268,12.792,19.242,12.792,30.899V308.55z" style="fill: rgb(75, 75, 75);"></path>
</g>
</svg>
