<!--?xml version="1.0" encoding="utf-8"?-->
<!-- Generator: Adobe Illustrator 18.1.1, SVG Export Plug-In . SVG Version: 6.00 Build 0)  -->

<svg version="1.1" id="_x32_" xmlns="http://www.w3.org/2000/svg" xmlns:xlink="http://www.w3.org/1999/xlink" x="0px" y="0px" viewBox="0 0 512 512" style="width: 256px; height: 256px; opacity: 1;" xml:space="preserve">
<style type="text/css">
	.st0{fill:#4B4B4B;}
</style>
<g>
	<path class="st0" d="M397.707,222.611c-4.78-12.638-11.489-24.484-16.686-35.656c-2.648-5.567-4.879-10.916-6.438-16.013
		c-1.565-5.091-2.45-9.819-2.45-14.243c0.059-4.206,0.786-8.108,2.548-12.164c8.373-19.228,11.437-38.093,11.437-55.195
		c-0.054-21.876-4.94-40.801-9.826-54.311c-4.886-13.562-9.772-21.724-10.03-22.147L358.465,0l-63.35,80.61h-78.28L153.53,0
		l-7.791,12.882c-0.264,0.422-5.15,8.584-10.03,22.147c-4.887,13.51-9.826,32.435-9.826,54.311c0,17.102,3.012,36.02,11.43,55.195
		c1.77,4.055,2.496,7.957,2.496,12.164c0,5.876-1.505,12.374-4.16,19.387c-3.949,10.604-10.393,22.094-16.059,34.151
		c-2.86,6.082-5.508,12.262-7.482,18.76c-2.027,6.497-3.328,13.305-3.328,20.371c-0.053,7.54,1.612,15.444,5.355,22.979
		c4.312,8.571,10.552,21.988,17.406,37.373c10.294,23.071,22.147,50.567,31.345,73.229c4.576,11.278,8.524,21.361,11.278,29.001
		c1.347,3.797,2.443,6.96,3.123,9.25c0.31,1.143,0.568,2.027,0.674,2.595l0.052,0.212c0,0.726-0.052,1.822-0.211,3.328
		c-0.416,5.196-1.46,13.51-1.46,22.714c0,7.172,0.627,14.91,2.76,22.603c2.179,7.587,6.082,15.339,12.942,21.256
		c5.976,5.098,12.89,8.426,19.908,10.922c10.546,3.684,21.308,5.401,29.675,6.286C249.942,512,255.714,512,255.971,512
		c0.37,0,10.558,0,23.441-2.08c6.444-1.037,13.569-2.601,20.582-5.091c7.019-2.496,13.986-5.824,19.909-10.922
		c6.913-5.916,10.809-13.668,12.942-21.256c2.186-7.693,2.754-15.431,2.754-22.603c0-6.134-0.416-11.859-0.885-16.587
		c-0.205-2.338-0.409-4.411-0.521-6.127c-0.152-1.506-0.205-2.655-0.205-3.328c0.053-0.363,0.258-1.195,0.521-2.179
		c1.453-5.15,5.302-15.544,10.288-28.169c7.541-18.977,17.828-43.409,27.707-66.012c9.925-22.615,19.44-43.554,25.31-55.301
		c3.79-7.535,5.408-15.438,5.408-22.979C403.221,239.911,400.877,231.024,397.707,222.611z M242.983,101.404h25.984V345.68h-25.984
		V101.404z M156.39,136.229c-7.171-16.323-9.72-32.23-9.72-46.888c0-18.76,4.265-35.393,8.577-47.245
		c0.522-1.506,1.044-2.906,1.612-4.206l35.188,44.75l-34.099,57.79C157.479,139.029,156.964,137.629,156.39,136.229z
		 M176.192,291.416c-4.002-2.232-8.056-6.438-11.226-12.262c-3.169-5.771-5.408-13.101-6.029-21.15
		c-0.105-1.512-0.158-3.025-0.158-4.53c0-10.077,2.707-19.07,6.709-25.152c2.02-3.07,4.259-5.354,6.603-6.913
		c2.331-1.558,4.622-2.39,7.112-2.602h0.06l1.036-0.053c2.542,0,5.091,0.726,7.746,2.239c3.949,2.238,8.003,6.444,11.172,12.268
		c3.17,5.771,5.409,13.094,6.03,21.15c0.105,1.559,0.151,3.012,0.151,4.517c0.06,10.09-2.7,19.083-6.702,25.165
		c-1.974,3.07-4.259,5.408-6.596,6.966c-2.292,1.558-4.576,2.338-7.072,2.548l-1.09,0.047
		C181.389,293.654,178.847,292.98,176.192,291.416z M329.828,375.104c-4.622,11.482-8.677,21.718-11.536,29.773
		c-1.452,4.008-2.655,7.488-3.539,10.4c-0.416,1.452-0.773,2.754-1.03,4.002c-0.264,1.347-0.528,2.443-0.574,4.365
		c0,1.762,0.158,3.532,0.31,5.454c0.521,5.725,1.354,13.2,1.354,20.952c0,5.976-0.522,12.004-1.922,16.891
		c-1.459,4.992-3.592,8.676-6.498,11.172c-3.123,2.7-7.904,5.204-13.312,7.118c-8.102,2.866-17.564,4.47-24.894,5.196
		c-3.638,0.416-6.755,0.575-8.94,0.68c-1.09,0.053-1.922,0.106-2.496,0.106h-0.825c-0.786,0-10.189-0.106-21.104-1.98
		c-5.408-0.931-11.232-2.285-16.429-4.213c-5.25-1.862-9.772-4.252-12.837-6.907c-2.905-2.496-5.038-6.18-6.444-11.12
		c-1.4-4.94-1.974-10.968-1.974-16.944c0-5.15,0.416-10.241,0.832-14.711c0.158-2.232,0.363-4.319,0.574-6.24
		c0.152-1.922,0.258-3.691,0.258-5.454c0-1.301-0.158-2.186-0.258-3.071c-0.316-1.664-0.733-3.268-1.3-5.144
		c-2.027-6.86-5.976-17.412-11.127-30.354c-2.284-5.818-4.833-12.11-7.527-18.608H333.36
		C332.171,369.379,330.97,372.29,329.828,375.104z M353.011,258.004c-0.832,10.756-4.523,20.159-9.462,26.452
		c-2.391,3.116-5.092,5.507-7.739,6.96c-2.655,1.565-5.196,2.239-7.746,2.239l-1.089-0.047c-2.502-0.211-4.781-0.99-7.125-2.548
		c-3.48-2.338-6.861-6.445-9.304-12.057c-2.496-5.567-4.002-12.533-4.002-20.074c0-1.446,0.053-2.958,0.205-4.517
		c0.786-10.756,4.523-20.166,9.409-26.398c2.443-3.17,5.15-5.514,7.798-7.019c2.648-1.513,5.196-2.239,7.745-2.239l1.036,0.053
		c2.496,0.212,4.834,1.043,7.172,2.602c3.434,2.285,6.86,6.445,9.303,12.005c2.496,5.559,4.002,12.526,3.956,20.06
		C353.169,254.979,353.11,256.492,353.011,258.004z M355.606,136.229c-0.621,1.4-1.09,2.8-1.558,4.2l-34.092-57.79l35.188-44.75
		c4.728,11.958,10.235,30.354,10.182,51.452C365.279,103.999,362.731,119.906,355.606,136.229z" style="fill: rgb(75, 75, 75);"></path>
	<path class="st0" d="M228.053,470.42c4.305,0,7.798-6.398,7.798-14.296c0-7.891-3.493-14.289-7.798-14.289
		c-4.305,0-7.798,6.398-7.798,14.289C220.255,464.021,223.748,470.42,228.053,470.42z" style="fill: rgb(75, 75, 75);"></path>
	<path class="st0" d="M283.922,470.42c4.305,0,7.798-6.398,7.798-14.296c0-7.891-3.493-14.289-7.798-14.289
		c-4.298,0-7.792,6.398-7.792,14.289C276.13,464.021,279.624,470.42,283.922,470.42z" style="fill: rgb(75, 75, 75);"></path>
	<path class="st0" d="M192.825,257.324c0-6.702-5.461-12.156-12.163-12.156c-6.755,0-12.216,5.454-12.216,12.156
		c0,6.702,5.461,12.163,12.216,12.163C187.364,269.486,192.825,264.026,192.825,257.324z" style="fill: rgb(75, 75, 75);"></path>
	<path class="st0" d="M331.339,245.168c-6.755,0-12.222,5.454-12.222,12.156c0,6.702,5.467,12.163,12.222,12.163
		c6.702,0,12.156-5.461,12.156-12.163C343.496,250.622,338.042,245.168,331.339,245.168z" style="fill: rgb(75, 75, 75);"></path>
</g>
</svg>
