<!--?xml version="1.0" encoding="utf-8"?-->
<!-- Generator: Adobe Illustrator 18.1.1, SVG Export Plug-In . SVG Version: 6.00 Build 0)  -->

<svg version="1.1" id="_x32_" xmlns="http://www.w3.org/2000/svg" xmlns:xlink="http://www.w3.org/1999/xlink" x="0px" y="0px" viewBox="0 0 512 512" style="width: 256px; height: 256px; opacity: 1;" xml:space="preserve">
<style type="text/css">
	.st0{fill:#4B4B4B;}
</style>
<g>
	<path class="st0" d="M118.045,112.383c21.486,0,38.911-17.417,38.911-38.904c0-21.494-17.425-38.919-38.911-38.919
		c-21.494,0-38.919,17.425-38.919,38.919C79.126,94.966,96.55,112.383,118.045,112.383z" style="fill: rgb(75, 75, 75);"></path>
	<path class="st0" d="M227.179,37.192h253.415v206.256H227.179v-17.222c-3.312-0.055-6.631-0.344-9.888-0.937l-1.062-0.195
		l-10.693-2.96v42.957h296.709v-10.826V15.55H205.536v103.644l21.643,7.568V37.192z" style="fill: rgb(75, 75, 75);"></path>
	<path class="st0" d="M233.724,358.683c0,21.486,17.417,38.911,38.919,38.911c21.486,0,38.911-17.425,38.911-38.911
		c0-21.494-17.425-38.911-38.911-38.911C251.141,319.772,233.724,337.189,233.724,358.683z" style="fill: rgb(75, 75, 75);"></path>
	<path class="st0" d="M272.644,417.042c-36.498,0-68.919,12.169-77.003,52.634l0.649,26.774h152.708l0.64-26.774
		C341.554,429.211,309.134,417.042,272.644,417.042z" style="fill: rgb(75, 75, 75);"></path>
	<path class="st0" d="M396.079,358.683c0,21.486,17.425,38.911,38.919,38.911c21.486,0,38.911-17.425,38.911-38.911
		c0-21.494-17.425-38.911-38.911-38.911C413.504,319.772,396.079,337.189,396.079,358.683z" style="fill: rgb(75, 75, 75);"></path>
	<path class="st0" d="M434.998,417.042c-36.498,0-68.919,12.169-77.003,52.634l0.649,26.774h152.708L512,469.676
		C503.908,429.211,471.495,417.042,434.998,417.042z" style="fill: rgb(75, 75, 75);"></path>
	<path class="st0" d="M368.039,166.868c-8.81,0-15.956,7.131-15.988,15.934l-63.944,23.634c-2.93-3.39-7.209-5.577-12.044-5.577
		c-8.834,0-15.996,7.162-15.996,15.996s7.162,15.996,15.996,15.996c8.817,0,15.956-7.131,15.988-15.942l63.943-23.626
		c2.93,3.39,7.209,5.577,12.044,5.577c8.834,0,15.996-7.162,15.996-15.996c0-3.406-1.078-6.538-2.89-9.13l41.004-59.382
		c1.242,0.313,2.53,0.531,3.874,0.531c8.833,0,15.996-7.162,15.996-15.996s-7.162-15.996-15.996-15.996
		c-8.834,0-15.996,7.162-15.996,15.996c0,3.405,1.078,6.537,2.89,9.13l-41.004,59.382
		C370.671,167.086,369.383,166.868,368.039,166.868z" style="fill: rgb(75, 75, 75);"></path>
	<path class="st0" d="M245.776,197.805l62.796-30.047c8.474-3.585,12.442-13.348,8.857-21.83
		c-3.577-8.474-13.348-12.434-21.822-8.857l-56.462,19.292l-51.088-17.862c-7.451-2.608-15.183-4.296-23.017-5.053l-34.436,53.087
		v-28.422H109.61v28.625l-38.568-46.55c-20.736,8.575-36.451,24.805-42.051,52.822L0.405,312.344
		c-2.008,8.99,3.648,17.886,12.637,19.893c8.974,2.006,17.87-3.656,19.877-12.63l30.07-79.509l7.78,236.615
		c0,10.903,8.833,19.737,19.736,19.737c10.911,0,19.745-8.834,19.745-19.737l7.849-141.102l7.826,141.102
		c0,10.903,8.85,19.737,19.745,19.737c10.904,0,19.744-8.834,19.744-19.737l11.106-287.516l45.074,12.489
		C229.858,203.194,238.394,201.819,245.776,197.805z" style="fill: rgb(75, 75, 75);"></path>
	<rect x="109.61" y="134.197" class="st0" width="20.994" height="14.715" style="fill: rgb(75, 75, 75);"></rect>
</g>
</svg>
