<!--?xml version="1.0" encoding="utf-8"?-->
<!-- Generator: Adobe Illustrator 18.1.1, SVG Export Plug-In . SVG Version: 6.00 Build 0)  -->

<svg version="1.1" id="_x32_" xmlns="http://www.w3.org/2000/svg" xmlns:xlink="http://www.w3.org/1999/xlink" x="0px" y="0px" viewBox="0 0 512 512" style="width: 256px; height: 256px; opacity: 1;" xml:space="preserve">
<style type="text/css">
	.st0{fill:#4B4B4B;}
</style>
<g>
	<path class="st0" d="M291.789,301.823l-44.146,61.045l-3.124-40.001h-23.482l-3.124,39.977l-44.154-61.021
		c-2.711,1.522-5.334,2.776-7.616,3.585c-11.485,4.039-31.268,11.858-47.845,24.08c2.607,3.092,5.367,6.087,8.281,8.984
		c25.164,25.157,57.039,39.507,89.86,43.028c5.188,0.583,10.393,0.866,15.613,0.891c0.494,0,0.972,0,1.474-0.025
		c5.189-0.024,10.401-0.308,15.565-0.89c32.708-3.578,64.454-17.92,89.553-43.004c2.914-2.898,5.698-5.916,8.305-9.008
		c-16.529-12.068-36.181-19.822-47.537-24.056C297.026,304.518,294.412,303.279,291.789,301.823z" style="fill: rgb(75, 75, 75);"></path>
	<path class="st0" d="M180.666,214.892c3.205,18.204,8.612,34.262,15.718,42.17c0,9.486,0,16.407,0,21.951
		c0,0.55-0.097,1.141-0.258,1.74l24.93,12.003v17.604h23.457v-17.604l24.913-11.996c-0.162-0.607-0.259-1.19-0.259-1.748
		c0-5.544,0-12.465,0-21.951c7.123-7.908,12.514-23.966,15.735-42.17c7.487-2.68,11.768-6.962,17.12-25.699
		c5.69-19.952-8.556-19.272-8.556-19.272c11.527-38.164-3.658-74.028-29.066-71.398c-17.531-30.66-76.246,7.01-94.652,4.387
		c0,10.514,4.379,18.406,4.379,18.406c-6.394,12.142-3.934,36.359-2.128,48.605c-1.044-0.016-13.939,0.114-8.467,19.272
		C168.881,207.931,173.162,212.213,180.666,214.892z" style="fill: rgb(75, 75, 75);"></path>
	<path class="st0" d="M497.331,441.915l-75.842-73.866c65.279-90.816,57.152-218.444-24.444-300.04
		c-90.671-90.678-238.177-90.678-328.847,0c-90.686,90.67-90.686,238.193-0.008,328.863c81.613,81.613,209.257,89.723,300.072,24.42
		l73.859,75.826c15.638,18.892,38.755,20.008,56.602,2.144C516.603,481.423,516.206,457.561,497.331,441.915z M360.152,359.979
		c-70.426,70.41-184.642,70.41-255.069-0.017c-70.427-70.427-70.427-184.635,0-255.053c70.427-70.426,184.626-70.426,255.053,0
		C430.571,175.344,430.579,289.536,360.152,359.979z" style="fill: rgb(75, 75, 75);"></path>
</g>
</svg>
